<?xml version="1.0" encoding="UTF-8" standalone="no"?>
<!-- Created with Inkscape (http://www.inkscape.org/) -->

<svg
   xmlns:dc="http://purl.org/dc/elements/1.1/"
   xmlns:cc="http://creativecommons.org/ns#"
   xmlns:rdf="http://www.w3.org/1999/02/22-rdf-syntax-ns#"
   xmlns:svg="http://www.w3.org/2000/svg"
   xmlns="http://www.w3.org/2000/svg"
   xmlns:sodipodi="http://sodipodi.sourceforge.net/DTD/sodipodi-0.dtd"
   xmlns:inkscape="http://www.inkscape.org/namespaces/inkscape"
   width="48px"
   height="48px"
   id="svg3105"
   version="1.1"
   inkscape:version="0.48.2 r9819"
   sodipodi:docname="drawing2.svg"
   inkscape:export-filename="C:\Users\betzalel\Desktop\drawing.png"
   inkscape:export-xdpi="600"
   inkscape:export-ydpi="600">
  <defs
     id="defs3107" />
  <sodipodi:namedview
     id="base"
     pagecolor="#ffffff"
     bordercolor="#666666"
     borderopacity="1.0"
     inkscape:pageopacity="0.0"
     inkscape:pageshadow="2"
     inkscape:zoom="3.5"
     inkscape:cx="20.794537"
     inkscape:cy="19.00973"
     inkscape:current-layer="layer1"
     showgrid="true"
     inkscape:grid-bbox="true"
     inkscape:document-units="px"
     inkscape:window-width="1920"
     inkscape:window-height="1005"
     inkscape:window-x="-9"
     inkscape:window-y="-9"
     inkscape:window-maximized="1" />
  <metadata
     id="metadata3110">
    <rdf:RDF>
      <cc:Work
         rdf:about="">
        <dc:format>image/svg+xml</dc:format>
        <dc:type
           rdf:resource="http://purl.org/dc/dcmitype/StillImage" />
        <dc:title></dc:title>
      </cc:Work>
    </rdf:RDF>
  </metadata>
  <g
     id="layer1"
     inkscape:label="Layer 1"
     inkscape:groupmode="layer">
    <path
       style="font-size:144px;font-style:normal;font-variant:normal;font-weight:normal;font-stretch:normal;text-align:end;line-height:125%;letter-spacing:0px;word-spacing:0px;text-anchor:end;fill:#000000;fill-opacity:1;stroke:none;font-family:Aparajita;-inkscape-font-specification:Aparajita"
       d="M 16.893385,2.5995021 C 13.222382,2.286546 10.148516,3.1673052 7.6583383,5.2532732 5.1681209,7.3393454 3.7928048,10.085635 3.5075975,13.490018 c -0.015401,0.189633 -0.012702,0.365314 -0.021514,0.550775 7.9676486,5.97331 17.1072006,12.95984 26.3795346,20.938118 0.297028,-4.791521 -2.424111,-8.886718 -8.156511,-12.300545 L 15.481351,18.856695 C 12.74208,17.229015 10.971994,15.771899 10.148429,14.458233 9.284614,13.178896 8.9124217,11.677679 9.0534695,9.9941498 9.1663266,8.6473886 9.9237702,7.481154 11.315622,6.4694472 12.707467,5.4578204 14.448863,5.0285901 16.5254,5.2056406 c 2.74394,0.2340062 4.925594,1.236422 6.570732,2.9968751 1.645067,1.7604851 2.864156,4.8912713 3.643852,9.4038123 l 1.433793,0.122281 1.1783,-14.0666517 -1.433801,-0.1222814 C 27.487893,4.2189235 27.109858,4.6451102 26.814545,4.8271025 26.51916,5.009191 26.134345,5.07056 25.652344,5.0294151 25.170241,4.9884063 24.200253,4.6795591 22.717557,4.1009192 20.474957,3.2315015 18.524503,2.7386435 16.892956,2.599462 z"
       id="path3062"
       inkscape:connector-curvature="0" />
    <path
       style="font-size:144px;font-style:normal;font-variant:normal;font-weight:normal;font-stretch:normal;text-align:end;line-height:125%;letter-spacing:0px;word-spacing:0px;text-anchor:end;fill:#000000;fill-opacity:1;stroke:none;font-family:Aparajita;-inkscape-font-specification:Aparajita"
       d="m 1.8400881,15.057361 c 0.1364829,2.233744 0.7992648,4.128549 1.9846861,5.656726 1.3396552,1.764618 4.174033,3.729458 8.5093418,5.907023 4.335277,2.177605 7.23168,3.973492 8.683002,5.381398 1.451273,1.407938 2.158321,3.153758 2.158346,5.256249 -2.5e-5,1.727062 -0.632647,3.210073 -1.935069,4.430268 -1.30247,1.220203 -2.989453,1.827172 -5.036141,1.827172 -2.939836,0 -5.600546,-1.063761 -7.9635532,-3.203809 C 5.8776779,38.172348 4.2837289,34.968547 3.427837,30.72599 l -1.463706,0 0,14.817618 1.463706,0 c 0.4093375,-0.788434 0.9427179,-1.176399 1.6125574,-1.176399 0.6326068,0 1.4512899,0.150179 2.4560491,0.450536 3.2375075,0.938612 6.1152945,1.401666 8.6085765,1.401666 3.497984,0 6.654875,-1.151369 9.501684,-3.479136 2.723752,-2.227184 4.124551,-5.127024 4.242267,-8.660297 C 20.1656,27.142378 10.246933,20.561882 1.8400881,15.057361 z"
       id="text2985"
       inkscape:connector-curvature="0" />
    <path
       style="fill:#000000"
       d="m 52.012685,1.1629002 c -0.873001,0.8504667 -2.644965,1.9375904 -5.763054,4.8766988 -2.249471,2.1203404 -4.511018,4.589034 -4.53677,4.767823 -0.08499,0.591104 0.224439,3.141711 0.665356,5.481808 0.251681,1.33576 0.45469,2.448791 0.451128,2.473317 -0.0031,0.02508 -0.110121,0.127572 -0.236975,0.228664 -0.324281,0.258937 -0.538719,0.09442 -0.720062,-0.552126 -0.08595,-0.306696 -0.191844,-0.560482 -0.235234,-0.564 -0.04326,-0.0047 -0.264939,0.326596 -0.492471,0.733504 -0.227476,0.406943 -0.461384,0.81917 -0.519791,0.916108 -0.08617,0.143401 0.0647,0.181145 0.810786,0.20275 0.504334,0.01457 1.099731,0.0076 1.32317,-0.0156 l 0.406166,-0.0422 -0.443594,0.300739 c -0.653049,0.442712 -1.538106,0.609415 -2.879348,0.542381 -1.816353,-0.09082 -3.393397,-0.802069 -5.030468,-2.268968 l -0.687455,-0.615964 -2.379174,2.079885 c -5.107199,4.464847 -15.667151,13.918877 -30.3905846,27.207803 -1.27121368,1.147351 -6.8669582,6.195625 -12.4350214,11.218412 -5.568043,5.022733 -10.356357,9.361115 -10.640688,9.640827 -0.583473,0.57402 -0.7706,0.658456 -0.882115,0.397983 -0.05153,-0.117732 0.810847,-1.009595 2.497337,-2.583714 17.5429498,-16.374163 26.5629524,-24.808167 34.871602,-32.60602 7.832304,-7.350763 16.662166,-15.72511 17.326849,-16.432894 0.197595,-0.210466 0.437137,-0.373989 0.532333,-0.363439 0.0953,0.01032 -0.122887,-0.460775 -0.4844,-1.047597 -0.361765,-0.586681 -0.840961,-1.64226 -1.065068,-2.345618 -1.437626,-4.5129926 0.421713,-7.9156333 4.337542,-7.9378425 0.833896,-0.00472 1.281955,-0.075928 1.5566,-0.2474138 0.212246,-0.1321592 0.6509,-0.2785681 0.97511,-0.3247576 0.324227,-0.046121 0.596417,-0.1320321 0.604952,-0.1908307 0.0089,-0.058368 -0.04626,-0.5047204 -0.121693,-0.9910104 -0.171761,-1.1074238 -0.12448,-1.5354591 0.159501,-1.4438252 0.256135,0.08271 0.181951,-0.1175676 1.261748,3.4055957 0.490335,1.5999378 0.973548,2.9975379 1.073804,3.1057439 0.154585,0.166727 0.237848,0.142458 0.547498,-0.159616 1.375921,-1.3422758 5.592481,-5.2492794 6.364822,-5.89758 0.515581,-0.4328603 1.414989,-1.24434247 1.998579,-1.80344227 0.583629,-0.5591256 1.203439,-1.0367162 1.377349,-1.0613425 0.466826,-0.066095 0.925843,0.1527733 1.086142,0.5180645 0.289691,0.6599428 0.244388,0.8823919 -0.284409,1.39754777 z m 0.03955,-1.39883567 c -0.150822,-0.2018551 -0.388118,-0.3795258 -0.527076,-0.3949853 -0.147233,-0.0165428 -0.659591,0.332915 -1.227484,0.8368646 C 49.761607,0.68180103 48.831597,1.4740167 48.23103,1.966549 47.630497,2.4591795 46.100892,3.8406165 44.831934,5.0365513 41.275004,8.3889464 41.027162,8.5924584 40.827581,8.3247834 40.662669,8.1034754 39.84748,5.6453861 39.093342,3.0948459 38.880106,2.3738466 38.656412,1.778438 38.596171,1.771729 c -0.165122,-0.018417 -0.202908,0.47942 -0.0753,0.9898233 0.06245,0.2494993 0.121934,0.6825886 0.132219,0.9623777 0.01561,0.4230207 -0.02834,0.5277906 -0.260365,0.6221912 -0.15338,0.062287 -0.385146,0.1016889 -0.514725,0.087339 -0.12953,-0.014429 -0.542528,0.1384052 -0.917704,0.3393829 -0.910853,0.4882105 -1.266393,1.0801903 -1.462389,2.4349678 -0.165707,1.1451968 -0.05528,1.5205878 0.382392,1.3004698 0.201148,-0.100294 0.262537,-0.285755 0.325699,-0.975018 0.105575,-1.1524828 0.461198,-1.922002 1.157929,-2.5061374 0.478794,-0.4014985 0.631069,-0.4609742 0.907146,-0.3552174 0.202341,0.077699 0.308544,0.072138 0.271914,-0.012605 -0.03179,-0.077455 0.01175,-0.1741803 0.09971,-0.216205 0.101905,-0.049656 0.159207,-0.2917336 0.156964,-0.6776093 -5.45e-4,-0.3303795 0.0317,-0.5970931 0.07129,-0.5926777 0.06108,0.00871 0.896817,2.6271772 0.878353,2.7545845 -0.0031,0.02508 0.214948,0.6102202 0.485367,1.3018791 0.385467,0.9861895 0.462611,1.3367305 0.357109,1.6241665 -0.07404,0.201583 10.185437,-9.21004597 10.895136,-9.29246647 0.303181,0.2470429 1.06271,0.5313878 0.335945,1.1957332 0.422325,0.046824 -10.361649,9.71691227 -10.367972,10.34466227 -0.0077,0.75561 0.204005,2.970646 0.380633,3.983133 0.06708,0.384355 0.239737,1.318747 0.383795,2.076355 0.144056,0.757617 0.227137,1.405214 0.184642,1.439126 -0.04257,0.03409 -0.186547,-0.269118 -0.320062,-0.673415 -0.13351,-0.404312 -0.315874,-0.718983 -0.405292,-0.699236 -0.08938,0.01967 -0.355362,0.394012 -0.591007,0.831676 -0.415243,0.771245 -1.143449,1.544501 -1.425078,1.513225 -0.07567,-0.0095 0.03704,-0.165526 0.25109,-0.34908 0.581873,-0.499113 0.989126,-1.16495 1.267155,-2.071511 0.26552,-0.866162 0.316392,-2.063536 0.111735,-2.635134 -0.06446,-0.180336 -0.07225,-0.551223 -0.01712,-0.824261 0.105589,-0.522727 -0.04931,-1.074224 -0.309833,-1.10314 -0.08485,-0.0093 -0.189993,0.05594 -0.233838,0.144658 -0.04993,0.10236 -0.186702,-0.0017 -0.369634,-0.280925 l -0.290617,-0.443408 -0.496496,0.429603 c -0.273072,0.236349 -0.975642,0.917643 -1.561155,1.514187 -0.924542,0.941973 -1.110303,1.073974 -1.412241,1.003344 -0.269405,-0.06259 -0.396456,-0.233405 -0.564342,-0.756833 -0.135747,-0.423122 -0.170524,-0.791181 -0.09306,-0.984979 0.0681,-0.170138 0.878609,-0.928106 1.801295,-1.684337 l 1.677606,-1.374946 0.03519,-0.818761 c 0.08565,-1.992793 -0.300935,-4.3052355 -0.754683,-4.5143919 -0.140888,-0.065029 -0.139955,-0.018867 0.0041,0.2013997 0.331316,0.5061276 0.526786,1.5117983 0.589849,3.0345032 0.03383,0.818043 0.04334,1.613315 0.02107,1.767284 -0.02536,0.176145 -0.718218,0.831869 -1.866963,1.767404 -2.009661,1.636695 -1.933564,1.500538 -1.544817,2.764228 0.198806,0.646402 0.421179,0.817537 0.961203,0.741132 0.172487,-0.02439 0.850392,-0.618404 1.611625,-1.41253 1.431542,-1.493096 1.453358,-1.511392 1.616778,-1.356002 0.244147,0.232135 0.829774,1.574676 1.012408,2.318249 0.349746,1.429031 -0.09866,3.262128 -1.035078,4.230952 -0.572896,0.592778 -0.872639,0.604281 -1.347288,0.051 -0.45692,-0.532443 -0.544247,-0.564321 -0.821242,-0.299573 -0.335629,0.320824 0.227951,0.931147 1.014329,1.098497 0.572671,0.12289 0.691081,0.09811 1.165569,-0.233934 0.309045,-0.216232 0.734437,-0.715569 1.025632,-1.203615 0.273675,-0.458737 0.52873,-0.830397 0.566785,-0.825956 0.03791,0.0052 0.175858,0.308924 0.305882,0.676863 0.251216,0.709596 0.526069,0.974394 0.585243,0.56393 0.01967,-0.135961 -0.157849,-1.354798 -0.394417,-2.708376 -0.530322,-3.034084 -0.7061,-5.042697 -0.477939,-5.46073 0.09004,-0.164777 1.650819,-1.634105 3.468683,-3.2652395 1.817795,-1.6310902 3.650045,-3.3024501 4.071627,-3.7141216 0.421607,-0.4116329 1.332352,-1.3277841 1.943481,-1.8762825 1.230319,-1.10410207 1.3209,-1.31581967 0.870229,-1.91861997 z M 38.623923,19.4572 c -0.170221,-0.01882 -0.626055,-0.487435 -0.606399,-0.623352 0.034,-0.235441 0.533278,-0.07277 0.63243,0.205888 0.117279,0.329883 0.110958,0.432523 -0.02601,0.417337 z M 36.65536,5.5999486 c -0.326661,0.5048756 -0.445879,0.8593981 -0.566633,1.6847818 -0.115844,0.790813 -0.196355,1.040504 -0.331558,1.025476 -0.24423,-0.02709 -0.199089,-1.1811164 0.07497,-1.9172197 0.245667,-0.6601315 0.758323,-1.353031 1.060808,-1.4341092 0.112955,-0.030263 0.198732,-0.04237 0.190711,-0.026578 -0.009,0.014749 -0.200792,0.3160557 -0.428293,0.6677708 z m 4.369736,9.5123574 c -0.0752,-0.537532 -0.694714,-2.203415 -0.970377,-2.609283 -0.07781,-0.115336 -0.499914,0.251533 -1.114849,0.969907 -0.601559,0.702602 -0.631065,0.771672 -0.743557,1.740555 -0.143096,1.232404 0.104444,1.880068 1.015066,2.655706 0.332832,0.283374 0.595197,0.583201 0.583196,0.666175 -0.01199,0.08294 0.118171,0.03906 0.289206,-0.09763 0.708355,-0.565273 1.122539,-2.028783 0.941227,-3.325593 z m -0.33412,-4.255598 c -0.0753,-0.342628 -0.237338,-0.285478 -0.46312,0.163522 -0.261242,0.519628 -0.262083,0.498723 0.02144,0.530203 0.398105,0.0441 0.551047,-0.195923 0.44173,-0.69364 z M 39.111489,8.0454864 c -0.03356,-1.9087581 -0.429476,-3.2485563 -0.977971,-3.3094421 -0.08625,-0.00962 -0.284406,0.055847 -0.43975,0.1457667 -0.27773,0.1604501 -0.278236,0.1693341 -0.0355,0.5167593 0.23543,0.337201 0.234632,0.3677293 -0.02071,0.6598737 -0.147215,0.1685111 -0.352135,0.3462363 -0.455299,0.3950687 -0.22104,0.1045572 -0.313209,0.5565272 -0.142105,0.697064 0.06546,0.053821 0.08199,0.3553727 0.03644,0.6700807 -0.04553,0.314658 -0.0264,0.647525 0.04249,0.739693 0.06959,0.09192 0.06173,0.703829 -0.01628,1.362041 -0.0777,0.6570296 -0.139596,1.2410186 -0.137162,1.2978336 0.01176,0.2739 0.462453,0.08198 1.298314,-0.552805 0.754004,-0.572573 0.914302,-0.7576066 0.894221,-1.0315936 -0.01351,-0.183599 -0.03439,-0.899213 -0.04653,-1.590252 z m -7.167831,8.8420196 c -0.351583,0.32557 -2.76689,2.620669 -5.367389,5.100126 -5.522452,5.265371 -13.658523,12.905537 -30.647859,28.779787 -6.742943,6.300365 -13.402455,12.531176 -14.798936,13.846251 -1.396483,1.315091 -2.807687,2.61616 -3.135996,2.891343 -0.419907,0.351911 -0.553575,0.535842 -0.450826,0.620258 0.08613,0.07088 0.210343,0.03247 0.302832,-0.09378 0.08623,-0.117571 1.241312,-1.18535 2.566869,-2.372923 1.325528,-1.187522 7.30667,-6.581012 13.2914581,-11.985507 C 14.957214,34.480378 27.51309,23.223086 31.920979,19.408376 L 33.813532,17.770508 33.1982,17.032961 32.582835,16.295408 31.943622,16.88745 z M 31.7781,19.397295 C 27.49827,23.107325 16.460211,32.990889 -0.82665458,48.591817 -14.334668,60.782474 -16.46412,62.687668 -16.568625,62.676059 c -0.04553,-0.0052 0.05674,-0.132522 0.227059,-0.28314 0.264852,-0.234612 7.4482344,-6.948735 20.1497113,-18.833766 C 18.678137,29.645013 27.640997,21.19244 31.477958,17.464612 c 0.504872,-0.490586 0.979661,-0.882378 1.055061,-0.87079 0.07516,0.01182 0.359507,0.280339 0.63126,0.597308 l 0.494197,0.576259 -1.880341,1.629995 z m -48.748981,43.726893 -0.332508,0.224207 0.293946,-0.275769 c 0.161665,-0.151734 0.314406,-0.273455 0.339247,-0.270806 0.105156,0.01131 0.01174,0.111755 -0.30069,0.322351 z"
       id="path3077"
       inkscape:connector-curvature="0"
       sodipodi:nodetypes="cscsccccccccccccccssccssccccccccccccscscccccccccccccccccccccccccccccccccscccsccccccccccscccscsccccsccccccccccccccccsccccccccccccccccccccsccccccccccccccccccccccccccssscccsssccccccsccscccccccccccc" />
  </g>
</svg>
